<svg width="25" height="28" viewBox="0 0 25 28" fill="none" xmlns="http://www.w3.org/2000/svg">
<path d="M9.20001 3L12.8 5.59808V0.401924L9.20001 3Z" fill="#333333"/>
<path fill-rule="evenodd" clip-rule="evenodd" d="M12.3209 2.50126C12.3805 2.50042 12.4402 2.5 12.5 2.5C19.4036 2.5 25 8.09644 25 15C25 21.9036 19.4036 27.5 12.5 27.5C5.59644 27.5 0 21.9036 0 15C0 13.1188 0.415543 11.3347 1.15984 9.73448L2.07051 10.1483C1.38359 11.6224 1 13.2664 1 15C1 21.3513 6.14873 26.5 12.5 26.5C18.8513 26.5 24 21.3513 24 15C24 8.64873 18.8513 3.5 12.5 3.5C12.4727 3.5 12.4454 3.5001 12.4182 3.50028L12.3209 2.50126Z" fill="#333333"/>
<circle r="0.75" transform="matrix(-1 0 0 1 2.75 15.1403)" fill="#333333"/>
<circle r="0.75" transform="matrix(-1 0 0 1 21.75 15.1403)" fill="#333333"/>
<circle r="0.75" transform="matrix(-1 0 0 1 12.25 24.6403)" fill="#333333"/>
<circle r="0.75" transform="matrix(-0.707107 0.707107 0.707107 0.707107 5.67032 21.8473)" fill="#333333"/>
<circle r="0.75" transform="matrix(-0.707107 0.707107 0.707107 0.707107 19.3297 8.64042)" fill="#333333"/>
<circle r="0.75" transform="matrix(-0.707107 0.707107 0.707107 0.707107 19.1035 22.0735)" fill="#333333"/>
<ellipse rx="0.75" ry="0.75" transform="matrix(-0.921371 0.388684 0.388684 0.921371 3.61379 18.9103)" fill="#333333"/>
<ellipse rx="0.75" ry="0.75" transform="matrix(-0.921371 0.388684 0.388684 0.921371 21.1199 11.5253)" fill="#333333"/>
<ellipse rx="0.75" ry="0.75" transform="matrix(-0.921371 0.388684 0.388684 0.921371 16.0593 23.9709)" fill="#333333"/>
<circle r="0.75" transform="matrix(-0.376667 0.926349 0.926349 0.376667 8.91141 23.9549)" fill="#333333"/>
<circle r="0.75" transform="matrix(-0.376667 0.926349 0.926349 0.376667 16.3634 6.47726)" fill="#333333"/>
<circle r="0.75" transform="matrix(-0.376667 0.926349 0.926349 0.376667 3.89859 11.4901)" fill="#333333"/>
<circle r="0.75" transform="matrix(-0.376667 0.926349 0.926349 0.376667 21.3763 18.9421)" fill="#333333"/>
</svg>
