<svg width="32" height="33" viewBox="0 0 32 33" fill="none" xmlns="http://www.w3.org/2000/svg">
<mask id="path-1-inside-1" fill="white">
<path fill-rule="evenodd" clip-rule="evenodd" d="M0 12H0.0709572L0 12.1013V12ZM15.9131 33H16V23.3047L0 12.1013V21.8575L15.9131 33Z"/>
</mask>
<path d="M0.0709572 12L1.70927 13.1471L3.91288 10H0.0709572V12ZM0 12V10H-2V12H0ZM15.9131 33L14.7659 34.6383L15.2825 35H15.9131V33ZM16 33V35H18V33H16ZM16 23.3047H18V22.2635L17.1472 21.6664L16 23.3047ZM0 21.8575H-2V22.8987L-1.14715 23.4958L0 21.8575ZM0.0709572 10H0V14H0.0709572V10ZM1.63831 13.2485L1.70927 13.1471L-1.56736 10.8529L-1.63831 10.9542L1.63831 13.2485ZM-2 12V12.1013H2V12H-2ZM15.9131 35H16V31H15.9131V35ZM18 33V23.3047H14V33H18ZM17.1472 21.6664L1.14715 10.463L-1.14715 13.7396L14.8528 24.943L17.1472 21.6664ZM-2 12.1013V21.8575H2V12.1013H-2ZM-1.14715 23.4958L14.7659 34.6383L17.0602 31.3617L1.14715 20.2192L-1.14715 23.4958Z" fill="white" mask="url(#path-1-inside-1)"/>
<mask id="path-3-inside-2" fill="white">
<path fill-rule="evenodd" clip-rule="evenodd" d="M16 33H16.071L16 32.8987V33ZM31.9131 12H32V21.6953L16 32.8987V23.1425L31.9131 12Z"/>
</mask>
<path d="M16.071 33L17.7093 31.8528L19.9129 35H16.071V33ZM16 33V35H14V33H16ZM31.9131 12L30.7659 10.3617L31.2825 10H31.9131V12ZM32 12V10H34V12H32ZM32 21.6953H34V22.7365L33.1472 23.3336L32 21.6953ZM16 23.1425H14V22.1013L14.8528 21.5042L16 23.1425ZM16.071 35H16V31H16.071V35ZM17.6383 31.7515L17.7093 31.8528L14.4327 34.1472L14.3617 34.0458L17.6383 31.7515ZM14 33V32.8987H18V33H14ZM31.9131 10H32V14H31.9131V10ZM34 12V21.6953H30V12H34ZM33.1472 23.3336L17.1472 34.537L14.8528 31.2604L30.8528 20.057L33.1472 23.3336ZM14 32.8987V23.1425H18V32.8987H14ZM14.8528 21.5042L30.7659 10.3617L33.0602 13.6383L17.1472 24.7808L14.8528 21.5042Z" fill="white" mask="url(#path-3-inside-2)"/>
<mask id="path-5-inside-3" fill="white">
<path fill-rule="evenodd" clip-rule="evenodd" d="M32 21H31.929L32 20.8987V21ZM16.0869 0H16V9.69534L32 20.8987V11.1425L16.0869 0Z"/>
</mask>
<path d="M31.929 21L30.2907 19.8528L28.0871 23H31.929V21ZM32 21V23H34V21H32ZM16.0869 0L17.2341 -1.6383L16.7175 -2H16.0869V0ZM16 0V-2H14V0H16ZM16 9.69534H14V10.7365L14.8528 11.3336L16 9.69534ZM32 11.1425H34V10.1013L33.1472 9.50416L32 11.1425ZM31.929 23H32V19H31.929V23ZM30.3617 19.7515L30.2907 19.8528L33.5673 22.1472L33.6383 22.0458L30.3617 19.7515ZM34 21V20.8987H30V21H34ZM16.0869 -2H16V2H16.0869V-2ZM14 0V9.69534H18V0H14ZM14.8528 11.3336L30.8528 22.537L33.1472 19.2604L17.1472 8.05704L14.8528 11.3336ZM34 20.8987V11.1425H30V20.8987H34ZM33.1472 9.50416L17.2341 -1.6383L14.9398 1.6383L30.8528 12.7808L33.1472 9.50416Z" fill="white" mask="url(#path-5-inside-3)"/>
<mask id="path-7-inside-4" fill="white">
<path fill-rule="evenodd" clip-rule="evenodd" d="M16 0H15.929L16 0.101338V0ZM0.0869045 21H0V11.3047L16 0.101338V9.85753L0.0869045 21Z"/>
</mask>
<path d="M15.929 0L14.2907 1.14715L12.0871 -2L15.929 -2V0ZM16 0V-2H18V0H16ZM0.0869045 21L1.23406 22.6383L0.717502 23H0.0869045V21ZM0 21V23H-2V21H0ZM0 11.3047H-2V10.2635L-1.14715 9.66635L0 11.3047ZM16 9.85753H18V10.8987L17.1472 11.4958L16 9.85753ZM15.929 -2H16V2H15.929V-2ZM14.3617 1.24849L14.2907 1.14715L17.5673 -1.14715L17.6383 -1.04581L14.3617 1.24849ZM18 0V0.101338H14V0H18ZM0.0869045 23H0V19H0.0869045V23ZM-2 21V11.3047H2V21H-2ZM-1.14715 9.66635L14.8528 -1.53697L17.1472 1.73964L1.14715 12.943L-1.14715 9.66635ZM18 0.101338V9.85753H14V0.101338H18ZM17.1472 11.4958L1.23406 22.6383L-1.06025 19.3617L14.8528 8.21923L17.1472 11.4958Z" fill="white" mask="url(#path-7-inside-4)"/>
</svg>
