<svg width="25" height="28" viewBox="0 0 25 28" fill="none" xmlns="http://www.w3.org/2000/svg">
<path d="M15.8 3L12.2 5.59808V0.401924L15.8 3Z" fill="#333333"/>
<path fill-rule="evenodd" clip-rule="evenodd" d="M12.6791 2.50126C12.6195 2.50042 12.5598 2.5 12.5 2.5C5.59644 2.5 0 8.09644 0 15C0 21.9036 5.59644 27.5 12.5 27.5C19.4036 27.5 25 21.9036 25 15C25 13.1188 24.5845 11.3347 23.8402 9.73448L22.9295 10.1483C23.6164 11.6224 24 13.2664 24 15C24 21.3513 18.8513 26.5 12.5 26.5C6.14873 26.5 1 21.3513 1 15C1 8.64873 6.14873 3.5 12.5 3.5C12.5273 3.5 12.5546 3.5001 12.5818 3.50028L12.6791 2.50126Z" fill="#333333"/>
<circle cx="22.25" cy="15.1403" r="0.75" fill="#333333"/>
<circle cx="3.25" cy="15.1403" r="0.75" fill="#333333"/>
<circle cx="12.75" cy="24.6403" r="0.75" fill="#333333"/>
<ellipse cx="19.3297" cy="21.8473" rx="0.75" ry="0.75" transform="rotate(45 19.3297 21.8473)" fill="#333333"/>
<ellipse cx="5.67032" cy="8.64042" rx="0.75" ry="0.75" transform="rotate(45 5.67032 8.64042)" fill="#333333"/>
<ellipse cx="5.89655" cy="22.0735" rx="0.75" ry="0.75" transform="rotate(45 5.89655 22.0735)" fill="#333333"/>
<ellipse cx="21.3862" cy="18.9103" rx="0.75" ry="0.75" transform="rotate(22.8726 21.3862 18.9103)" fill="#333333"/>
<ellipse cx="3.88014" cy="11.5253" rx="0.75" ry="0.75" transform="rotate(22.8726 3.88014 11.5253)" fill="#333333"/>
<ellipse cx="8.94065" cy="23.9709" rx="0.75" ry="0.75" transform="rotate(22.8726 8.94065 23.9709)" fill="#333333"/>
<circle cx="16.0886" cy="23.9549" r="0.75" transform="rotate(67.8726 16.0886 23.9549)" fill="#333333"/>
<circle cx="8.63657" cy="6.47726" r="0.75" transform="rotate(67.8726 8.63657 6.47726)" fill="#333333"/>
<circle cx="21.1014" cy="11.4901" r="0.75" transform="rotate(67.8726 21.1014 11.4901)" fill="#333333"/>
<circle cx="3.62375" cy="18.9421" r="0.75" transform="rotate(67.8726 3.62375 18.9421)" fill="#333333"/>
</svg>
